<?xml version="1.0" encoding="utf-8"?>
<!-- Generator: Adobe Illustrator 27.9.1, SVG Export Plug-In . SVG Version: 6.00 Build 0)  -->
<svg version="1.1" id="Layer_1" xmlns="http://www.w3.org/2000/svg" xmlns:xlink="http://www.w3.org/1999/xlink" x="0px" y="0px"
	 viewBox="0 0 140 113.5" style="enable-background:new 0 0 140 113.5;" xml:space="preserve">
<style type="text/css">
	.st0{fill:#F8A634;}
	.st1{fill:#CA2A2E;}
	.st2{fill:#F37E26;}
	.st3{fill:#E01E68;}
	.st4{fill:#236D40;}
	.st5{fill:#20A685;}
	.st6{fill:#BC2481;}
	.st7{fill:#592E62;}
	.st8{fill:#1584B9;}
	.st9{fill:#A7CB3F;}
	.st10{fill:#186394;}
	.st11{fill:#20ACDF;}
	.st12{fill:#A62A2F;}
	.st13{fill:#42AF4D;}
	.st14{fill:#802F8F;}
</style>
<g>
	<path class="st0" d="M133.51,52.52c2.21,2.28,3.24,5.31,4.97,7.9c0.68,1.02,1.04,2.26,2.02,3.09c0,0.33,0,0.67,0,1
		c-3.6,1.35-6.63,3.75-10.04,5.43c-0.64,0.32-1.33,1.64-2.25,0.3c0.48-0.25,0.71-0.66,0.84-1.17
		C130.53,63.55,132.02,58.03,133.51,52.52z"/>
	<path class="st1" d="M74.57,13.85c8.29,4.72,16.59,9.43,25.23,14.34c-5.42,3.13-10.5,6.07-15.58,9c-2.52,1.45-5.07,2.85-7.54,4.37
		c-1.04,0.64-1.83,0.71-2.93,0.06c-7.73-4.55-15.5-9.02-23.26-13.52c0,0-0.01,0.01-0.01,0.01c0.07-0.06,0.13-0.12,0.19-0.18
		c3.88-2.21,7.84-4.3,11.62-6.68C66.33,18.7,70.75,16.77,74.57,13.85z"/>
	<path class="st2" d="M65.98,65.92c-4.86,2.87-9.73,5.72-14.57,8.63c-0.84,0.51-1.5,0.4-2.29-0.06c-4.45-2.61-8.9-5.21-13.4-7.73
		c-1.11-0.62-1.43-1.4-1.42-2.61c0.05-4.99,0.02-9.98,0.03-14.98c0-0.9-0.11-1.76,0.94-2.35c4.85-2.73,9.66-5.54,14.5-8.3
		c0.19-0.11,0.48-0.02,0.72-0.02c0,5.15,0.15,10.31-0.06,15.45c-0.09,2.31,0.9,3.39,2.73,4.4C57.5,60.76,61.88,63.11,65.98,65.92z"
		/>
	<path class="st3" d="M25.96,13.95C34.02,9.13,42,4.18,50.42,0c0,4.99-0.05,9.99,0.03,14.98c0.06,4.32-0.31,8.64,0.22,12.95
		c-0.06,0.06-0.12,0.12-0.19,0.18c-0.08,0.1-0.16,0.1-0.25,0.02c-1.45-0.82-2.91-1.6-4.33-2.45C39.27,21.72,32.4,18.2,25.96,13.95z"
		/>
	<path class="st4" d="M50.39,112.4c-0.91,0.16-1.79,0.23-2.66-0.28c-7.24-4.24-14.5-8.47-21.75-12.7
		c4.81-3.34,10.02-6.02,15.09-8.92c3.06-1.75,5.9-3.94,9.33-4.98l0.06,0C50.45,94.48,50.42,103.44,50.39,112.4z"/>
	<path class="st5" d="M50.41,85.53c-3.44,1.04-6.28,3.23-9.33,4.98c-5.07,2.9-10.28,5.58-15.09,8.92c-0.19-0.13-0.37-0.25-0.56-0.38
		c0.02-9.34,0.05-18.69,0.07-28.03l0.09,0c7.48,4.28,14.95,8.57,22.43,12.84c0.79,0.45,1.62,0.82,2.43,1.23
		C50.47,85.23,50.45,85.38,50.41,85.53z"/>
	<path class="st6" d="M25.96,13.95c6.44,4.25,13.32,7.77,19.93,11.73c1.42,0.85,2.89,1.64,4.33,2.45c0,0-0.06-0.01-0.06-0.01
		c-8.18,4.72-16.35,9.43-24.53,14.15c-0.08-0.07-0.15-0.15-0.21-0.24c0-9.24,0-18.48,0.01-27.73C25.6,14.18,25.78,14.06,25.96,13.95
		z"/>
	<path class="st7" d="M1.09,56.47c0.01-9.35,0.02-18.71,0.03-28.06c3.04,1.7,6.08,3.41,9.14,5.08c5.09,2.78,9.91,6.04,15.16,8.53
		c0.06,0.09,0.13,0.17,0.21,0.24c-0.02,0.13-0.08,0.23-0.18,0.31C17.33,47.21,9.21,51.84,1.09,56.47z"/>
	<path class="st8" d="M1.43,85.15c-0.39-0.27-0.42-0.68-0.42-1.1c0.03-9.03,0.06-18.06,0.08-27.09c3.3,1.23,6.07,3.41,9.14,5.04
		c5.12,2.73,9.9,6.08,15.2,8.49c0.05,0.17,0.1,0.34,0.16,0.51c0,0-0.09,0-0.09,0c-4.37,2.5-8.77,4.94-13.08,7.53
		C8.76,80.75,4.81,82.48,1.43,85.15z"/>
	<path class="st9" d="M50.41,85.53c0.04-0.15,0.05-0.3,0.04-0.45c8.1-4.65,16.21-9.3,24.65-14.14c0,8.88,0.02,17.33-0.02,25.77
		c0,0.92,0.47,1.99-0.51,2.76c-0.36-0.33-0.68-0.73-1.09-0.97c-4.05-2.37-8.07-4.82-12.21-7.05c-3.61-1.95-6.93-4.43-10.79-5.92
		L50.41,85.53z"/>
	<path class="st10" d="M25.43,70.5c-5.3-2.41-10.07-5.77-15.2-8.49c-3.07-1.64-5.85-3.82-9.14-5.04c0-0.16,0-0.33,0-0.49
		c8.12-4.63,16.24-9.26,24.36-13.9C25.44,51.88,25.44,61.19,25.43,70.5z"/>
	<path class="st11" d="M1.43,85.15c3.38-2.67,7.33-4.41,10.99-6.61c4.31-2.59,8.72-5.03,13.08-7.53
		c-0.02,9.34-0.05,18.69-0.07,28.03C17.31,94.62,9.27,90.06,1.43,85.15z"/>
	<path class="st12" d="M50.66,27.93c-0.53-4.31-0.15-8.63-0.22-12.95C50.37,9.99,50.42,4.99,50.42,0c3.7,1.52,6.97,3.82,10.42,5.77
		c4.62,2.61,9.16,5.38,13.73,8.08c-3.82,2.92-8.24,4.85-12.29,7.41C58.5,23.63,54.54,25.72,50.66,27.93z"/>
	<path class="st13" d="M50.48,85.53c3.86,1.49,7.18,3.97,10.79,5.92c4.13,2.23,8.15,4.68,12.21,7.05c0.41,0.24,0.73,0.64,1.09,0.97
		c-7.18,4.18-14.36,8.36-21.53,12.56c-0.85,0.5-1.72,0.56-2.64,0.37C50.42,103.44,50.45,94.48,50.48,85.53z"/>
	<path class="st14" d="M25.42,42.03c-5.25-2.49-10.07-5.75-15.16-8.53c-3.06-1.67-6.09-3.39-9.14-5.08
		c5.1-3.57,10.67-6.36,16.03-9.5c2.72-1.6,5.52-3.08,8.28-4.61C25.43,23.54,25.42,32.78,25.42,42.03z"/>
	<path class="st0" d="M65.98,65.92c-4.1-2.82-8.48-5.17-12.83-7.57c-1.83-1.01-2.82-2.09-2.73-4.4c0.21-5.14,0.06-10.3,0.06-15.45
		c5.26,2.44,10.07,5.69,15.13,8.48c0.57,0.31,0.79,0.79,0.79,1.43c-0.04,5.72-0.06,11.44-0.1,17.16
		C66.3,65.69,66.09,65.81,65.98,65.92z"/>
	<path class="st2" d="M133.51,52.52c-1.49,5.51-2.98,11.03-4.46,16.55c-0.14,0.51-0.37,0.92-0.84,1.17
		c-1.89-3.23-3.8-6.45-5.68-9.69c-0.4-0.68-1.09-1.42,0.1-2.07C126.27,56.52,129.65,54.07,133.51,52.52z"/>
	<path class="st0" d="M112.97,42.84c1.92,1.04,2.27,3.18,3.33,4.82c1.02,1.58,2.92,3.33,2.46,4.95c-0.46,1.62-2.97,2.17-4.65,3.06
		c-1.68,0.89-3.07,2.45-5.17,2.49c0.42-1.34,0.9-2.67,1.23-4.03C111.1,50.36,112.63,46.75,112.97,42.84z"/>
	<path class="st2" d="M112.97,42.84c-0.34,3.91-1.87,7.52-2.8,11.29c-0.33,1.36-0.82,2.69-1.23,4.03c-2.02-2.65-3.38-5.69-5.14-8.49
		c-0.57-0.9-0.48-1.47,0.47-1.99C107.18,46.08,110.07,44.45,112.97,42.84z"/>
	<path class="st2" d="M107.14,95.48c-1.55-2.64-3.06-5.3-4.67-7.91c-0.62-1.01-0.52-1.56,0.55-2.13c2.7-1.44,5.34-2.98,8.01-4.48
		c0.57,0.44,0.41,0.95,0.24,1.55c-0.96,3.46-1.84,6.95-2.84,10.41C108.16,93.82,108.15,94.93,107.14,95.48z"/>
	<path class="st0" d="M107.14,95.48c1.01-0.56,1.02-1.66,1.28-2.56c1-3.45,1.88-6.94,2.84-10.41c0.16-0.59,0.32-1.11-0.24-1.55
		c0.74-0.77,0.96-0.01,1.23,0.45c1.5,2.57,2.95,5.17,4.47,7.73c0.51,0.86,0.56,1.43-0.43,1.98c-2.67,1.49-5.3,3.05-7.95,4.58
		C107.87,95.97,107.43,96.15,107.14,95.48z"/>
	<path class="st0" d="M88.99,68.95c0.27-0.35,0.62-0.62,1.02-0.27c0.3,0.26,0.49,0.65,0.71,0.99c4.16,6.52,3.91,7.2-3.73,10.29
		c0.34-2.94,1.44-5.68,2.12-8.54C89.31,70.57,89.9,69.74,88.99,68.95z"/>
	<path class="st2" d="M88.99,68.95c0.91,0.79,0.32,1.61,0.12,2.47c-0.68,2.85-1.79,5.6-2.12,8.54c-2.17-1.68-2.81-4.37-4.27-6.52
		c-0.58-0.85,0.29-1.16,0.83-1.46C85.35,70.95,87.17,69.96,88.99,68.95z"/>
	<path class="st0" d="M106.99,66.06c1.7,1.49,2.39,3.64,3.56,5.47c0.35,0.54,0.15,0.95-0.37,1.2c-1.91,0.91-3.49,2.47-5.66,2.89
		C105.34,72.44,106.17,69.25,106.99,66.06z"/>
	<path class="st2" d="M106.99,66.06c-0.82,3.19-1.64,6.38-2.47,9.57c-1.66-1.44-2.28-3.56-3.45-5.32c-0.42-0.63-0.11-1.1,0.49-1.4
		C103.39,67.99,104.96,66.58,106.99,66.06z"/>
	<path class="st2" d="M89.49,61c-1.94-1.06-2.27-3.24-3.39-4.88c-0.35-0.51,0.15-0.91,0.61-1.14c1.6-0.79,2.95-2.08,4.78-2.43
		C90.82,55.37,90.16,58.19,89.49,61z"/>
	<path class="st0" d="M89.49,61c0.67-2.82,1.34-5.63,2.01-8.45c1.49,1.25,2,3.14,3.04,4.69c0.45,0.67,0.11,1.07-0.48,1.36
		C92.5,59.35,91.19,60.55,89.49,61z"/>
	<path class="st12" d="M50.16,28.12c0,0,0.06,0.01,0.06,0.01c0.09,0.08,0.17,0.08,0.25-0.02c0,0,0.01-0.01,0.01-0.01
		c0,0-0.16,0.07-0.16,0.07L50.16,28.12z"/>
</g>
</svg>
